<svg xmlns="http://www.w3.org/2000/svg" viewBox="5669.852 666.947 66.859 66.825">
  <defs>
    <style>
      .cls-1 {
        fill: #fff;
      }
    </style>
  </defs>
  <g id="Group_89" data-name="Group 89" transform="translate(5669.852 666.947)">
    <path id="Path_194" data-name="Path 194" class="cls-1" d="M49.028,111.1a5.3,5.3,0,0,0-4.934,3.424.934.934,0,0,0,.571,1.208A1.192,1.192,0,0,0,45,115.8a.941.941,0,0,0,.873-.6,3.346,3.346,0,0,1,3.155-2.182.957.957,0,0,0,0-1.913Z" transform="translate(-29.259 -73.811)"/>
    <path id="Path_195" data-name="Path 195" class="cls-1" d="M92.524,105.148A3.524,3.524,0,1,0,89,101.624,3.524,3.524,0,0,0,92.524,105.148Zm0-5.169a1.645,1.645,0,1,1-1.645,1.645A1.669,1.669,0,0,1,92.524,99.98Z" transform="translate(-59.128 -65.174)"/>
    <path id="Path_196" data-name="Path 196" class="cls-1" d="M76.839,69.4l-3.86-12.855c-.537-1.812-1.208-4.028-2.685-5.471h0a5.37,5.37,0,0,0-10.74,0,5.564,5.564,0,0,0,.369,1.947c-.2.235-.436.436-.638.671-.168.2-.336.369-.5.537a6.345,6.345,0,0,0-7.72,0c-.168-.168-.336-.369-.5-.537-.2-.235-.4-.436-.638-.671A5.369,5.369,0,1,0,39.55,51.07h0c-1.477,1.477-2.148,3.658-2.685,5.471L33,69.4a8.651,8.651,0,0,0-.7,3.491,9.019,9.019,0,0,0,18.024.5,8.7,8.7,0,0,0,4.632,1.376,8.411,8.411,0,0,0,4.632-1.376,9.019,9.019,0,0,0,18.024-.5A10.809,10.809,0,0,0,76.839,69.4ZM64.89,47.546a3.477,3.477,0,0,1,3.256,2.215,6.342,6.342,0,0,0-2.014-.3,7.078,7.078,0,0,0-4.7,2.014,1.773,1.773,0,0,1-.034-.436A3.488,3.488,0,0,1,64.89,47.546Zm-20.037,0a3.51,3.51,0,0,1,3.491,3.491,2.064,2.064,0,0,1-.034.436,7.078,7.078,0,0,0-4.7-2.014,6.055,6.055,0,0,0-2.014.3A3.511,3.511,0,0,1,44.853,47.546Zm-6.276,9.5c1.007-3.356,1.947-5.706,5.035-5.706,2.182,0,3.86,1.812,5.5,3.591.269.3.571.6.839.906l-.6,3.961a.946.946,0,0,0,.806,1.074h.134a.941.941,0,0,0,.94-.806l.638-4.128a4.351,4.351,0,0,1,3.021-1.208,4.412,4.412,0,0,1,3.021,1.208l.3,1.913a.941.941,0,0,0,.94.806h.134a.971.971,0,0,0,.806-1.074l-.269-1.745c.269-.3.571-.6.839-.906,1.645-1.745,3.323-3.591,5.5-3.591,3.088,0,4.028,2.383,5.035,5.706l2.517,8.424a8.936,8.936,0,0,0-5.169-1.645,9.037,9.037,0,0,0-8.76,6.847,6.735,6.735,0,0,1-9.8,0,9.037,9.037,0,0,0-8.76-6.847,8.936,8.936,0,0,0-5.169,1.645ZM41.228,80a7.115,7.115,0,1,1,7.115-7.115A7.119,7.119,0,0,1,41.228,80Zm27.287,0a7.115,7.115,0,1,1,7.115-7.115A7.119,7.119,0,0,1,68.515,80Z" transform="translate(-21.459 -30.361)"/>
    <path id="Path_197" data-name="Path 197" class="cls-1" d="M45.483,127.808a.966.966,0,0,0-1.175-.671.938.938,0,0,0,.235,1.846.426.426,0,0,0,.2-.034.952.952,0,0,0,.7-1.141Z" transform="translate(-28.97 -84.444)"/>
    <path id="Path_198" data-name="Path 198" class="cls-1" d="M130.328,111.1a5.3,5.3,0,0,0-4.934,3.424.934.934,0,0,0,.571,1.208,1.192,1.192,0,0,0,.336.067.941.941,0,0,0,.873-.6,3.346,3.346,0,0,1,3.155-2.182.938.938,0,0,0,.94-.94A.926.926,0,0,0,130.328,111.1Z" transform="translate(-83.271 -73.811)"/>
    <path id="Path_199" data-name="Path 199" class="cls-1" d="M126.783,127.808a.966.966,0,0,0-1.175-.671.938.938,0,0,0,.235,1.846.426.426,0,0,0,.2-.034.952.952,0,0,0,.7-1.141Z" transform="translate(-82.982 -84.444)"/>
    <path id="Path_200" data-name="Path 200" class="cls-1" d="M65.818,33.4H64.811A31.375,31.375,0,0,1,11.244,55.581,31.363,31.363,0,1,1,55.581,11.21a31.3,31.3,0,0,1,9.2,22.186h2.047A33.392,33.392,0,0,0,9.8,9.8,33.413,33.413,0,0,0,33.429,66.825,33.461,33.461,0,0,0,66.859,33.4h-1.04Z" transform="translate(0 0)"/>
  </g>
</svg>
