<svg xmlns="http://www.w3.org/2000/svg" viewBox="293.232 1564.355 77.299 90.527">
  <defs>
    <style>
      .cls-1 {
        fill: #26b4c7;
      }

      .cls-2 {
        fill: #fff;
      }

      .cls-3 {
        fill: #65748e;
      }

      .cls-4 {
        fill: #03163b;
      }
    </style>
  </defs>
  <g id="Group_92" data-name="Group 92" transform="translate(0 -7)">
    <rect id="Rectangle_13" data-name="Rectangle 13" class="cls-1" width="40.637" height="90.527" transform="translate(293.232 1571.355)"/>
    <ellipse id="Ellipse_32" data-name="Ellipse 32" class="cls-2" cx="4.396" cy="4.396" rx="4.396" ry="4.396" transform="translate(316.285 1592.159)"/>
    <ellipse id="Ellipse_33" data-name="Ellipse 33" class="cls-2" cx="4.396" cy="4.396" rx="4.396" ry="4.396" transform="translate(305.755 1606.216)"/>
    <ellipse id="Ellipse_34" data-name="Ellipse 34" class="cls-2" cx="4.396" cy="4.396" rx="4.396" ry="4.396" transform="translate(321.346 1622.88)"/>
    <ellipse id="Ellipse_35" data-name="Ellipse 35" class="cls-2" cx="4.396" cy="4.396" rx="4.396" ry="4.396" transform="translate(320.681 1633.87)"/>
    <path id="Path_8" data-name="Path 8" class="cls-3" d="M80.165,15.889l3.68-1.789h3.578l2.811.869,1.278.92,2.4,1.278,2.454.613,4.5,2.965,1.789,2.4,4.754,1.789,3.169,4.5.869,2.811,1.022,7v1.789L114,45.894l.767,5.572L113.288,55.1,109.4,59.849l-1.278,1.891.256,4.089-1.636,5.878-4.089,2.811-1.022,2.045v2.811L99.589,82.7l-3.22,1.431L93.3,87.963l-3.834,3.323H86.3L84.356,90.11l-2.045-.869L79.5,88.065V64.04l.665-22.849L79.5,32.246v-6.7l.665-7.105Z" transform="translate(254.369 1564.462)"/>
    <g id="Group_6" data-name="Group 6" transform="translate(297.361 1576.822)">
      <path id="Path_9" data-name="Path 9" class="cls-4" d="M81.133,46.122a18.95,18.95,0,0,0-2.4-7c.409-6.952-.971-12.217-4.089-15.642a11.356,11.356,0,0,0-6.8-3.578c-2.249-4.7-6.032-5.623-8.332-5.418-4.294-3.987-8.281-4.089-10.939-3.476a11.314,11.314,0,0,0-3.936,1.84,10.875,10.875,0,0,0-3.936-1.84c-2.607-.665-6.594-.562-10.888,3.476-2.3-.2-6.083.665-8.332,5.418a11.654,11.654,0,0,0-6.8,3.578c-3.169,3.374-4.549,8.639-4.089,15.642a18.746,18.746,0,0,0-2.4,7c-.46,3.783.256,9.15,6.185,13.495-.665,4.089-.051,11.041,6.441,14.517a9.158,9.158,0,0,0,.869,6.236A7.431,7.431,0,0,0,26.8,83.743c1.176,1.84,5.265,7.514,10.377,7.514h.1c2.76-.051,5.214-1.636,7.361-4.8,2.147,3.169,4.652,4.754,7.361,4.8,5.163.051,9.3-5.674,10.479-7.514a7.432,7.432,0,0,0,5.112-3.374,9.158,9.158,0,0,0,.869-6.236c6.492-3.425,7.156-10.428,6.441-14.517C80.878,55.272,81.594,49.9,81.133,46.122ZM37.225,88.446c-3.629.051-7.258-4.8-8.383-6.645a1.321,1.321,0,0,0-.971-.665,4.963,4.963,0,0,1-3.783-2.2c-1.278-2.1-.358-5.112-.307-5.163a1.456,1.456,0,0,0-.767-1.738c-7.923-3.374-5.827-12.37-5.725-12.728a1.386,1.386,0,0,0-.562-1.482C6.3,50.876,12.894,40.652,13.2,40.192a1.723,1.723,0,0,0,.256-.869c-.46-6.39.665-11.041,3.323-13.9A8.7,8.7,0,0,1,22.5,22.557a1.393,1.393,0,0,0,1.278-.869c1.585-3.885,4.089-4.447,5.367-4.447a2.383,2.383,0,0,1,.818.1,1.429,1.429,0,0,0,1.329-.358c2.862-2.863,5.776-3.936,8.69-3.22a8.4,8.4,0,0,1,3.271,1.585V83.437C41.365,86.708,39.372,88.395,37.225,88.446ZM72.75,57.725l-.307.153c-2.249,1.738-4.345,2.351-6.134,1.84-3.169-.92-4.754-5.06-4.754-5.112a1.391,1.391,0,0,0-2.607.971c.1.2,2.1,5.521,6.594,6.85a7.084,7.084,0,0,0,2.045.307,9.332,9.332,0,0,0,4.652-1.38c.2,2.914-.256,8.281-6.032,10.734a1.383,1.383,0,0,0-.767,1.738c0,.051.971,3.016-.307,5.112a5.211,5.211,0,0,1-3.783,2.2,1.321,1.321,0,0,0-.971.665c-1.073,1.84-4.7,6.645-8.332,6.645H52c-2.147-.051-4.14-1.738-6.032-5.112V15.35a8.781,8.781,0,0,1,3.22-1.636,8.244,8.244,0,0,1,7.258,1.84l-2.556,3.425a1.392,1.392,0,0,0,.307,1.942,1.287,1.287,0,0,0,.818.256,1.429,1.429,0,0,0,1.125-.562l2.5-3.374a1.454,1.454,0,0,0,.665,0c.358-.1,3.476-.665,5.572,3.067-7.258,3.169-7.361,9.61-7.361,9.917A1.374,1.374,0,0,0,58.9,31.6h0a1.374,1.374,0,0,0,1.38-1.38c0-.2.153-5.469,6.645-7.719a8.744,8.744,0,0,1,5.572,2.811c2.658,2.863,3.731,7.565,3.323,13.9a1.338,1.338,0,0,0,.256.869,16.288,16.288,0,0,1,2.2,6.236C78.935,51.029,77.044,54.812,72.75,57.725Z" transform="translate(-8.077 -10.697)"/>
      <path id="Path_10" data-name="Path 10" class="cls-4" d="M108.378,58.02c-.307.1-6.952,2.454-10.479-2.3a23.857,23.857,0,0,1-3.271-6.236c-.665-1.789-1.329-3.527-3.067-4.038a34.535,34.535,0,0,0,.971-7.565A1.386,1.386,0,0,0,91.1,36.5a1.419,1.419,0,0,0-1.38,1.431c0,.1.1,8.792-4.294,14.313a1.41,1.41,0,0,0,1.125,2.249,1.439,1.439,0,0,0,1.073-.511,20.145,20.145,0,0,0,3.118-5.827c.409.153.665.716,1.278,2.351a26.72,26.72,0,0,0,3.629,6.9,10.394,10.394,0,0,0,8.639,4.038,17.041,17.041,0,0,0,5.06-.818,1.391,1.391,0,1,0-.971-2.607Z" transform="translate(-45.749 -23.31)"/>
      <path id="Path_11" data-name="Path 11" class="cls-4" d="M96.228,114.138a6.283,6.283,0,0,0-2.4.46,14.421,14.421,0,0,0-4.447-9.2,1.41,1.41,0,0,0-1.994,1.994c4.549,4.549,3.578,8.894,3.527,9.1h0a18.7,18.7,0,0,0-3.885,6.39,1.353,1.353,0,0,0,.869,1.738,1.489,1.489,0,0,0,1.789-.92c.665-1.891,3.067-6.85,6.492-6.85a1.374,1.374,0,0,0,1.38-1.38A1.289,1.289,0,0,0,96.228,114.138Z" transform="translate(-46.633 -56.784)"/>
      <path id="Path_12" data-name="Path 12" class="cls-4" d="M47.4,71.592a5.643,5.643,0,0,0-4.192-5.418V59.018a1.374,1.374,0,0,0-1.38-1.38H39.015V46.29a5.572,5.572,0,1,0-2.76,0V57.638H33.29a5.572,5.572,0,1,0,0,2.76h7.156v5.776a5.6,5.6,0,0,0,0,10.837V81.56a5.572,5.572,0,1,0,2.76,0V77.011A5.643,5.643,0,0,0,47.4,71.592ZM34.823,40.872a2.836,2.836,0,0,1,2.811-2.811,2.8,2.8,0,0,1,2.811,2.811,2.811,2.811,0,1,1-5.623,0Zm-7,20.958a2.811,2.811,0,1,1,2.811-2.811A2.8,2.8,0,0,1,27.821,61.829Zm11.194,9.763a2.8,2.8,0,0,1,2.811-2.811,2.811,2.811,0,0,1,0,5.623A2.8,2.8,0,0,1,39.015,71.592Zm5.572,15.335a2.836,2.836,0,0,1-2.811,2.811,2.811,2.811,0,0,1,0-5.623A2.836,2.836,0,0,1,44.587,86.927Z" transform="translate(-15.03 -22.724)"/>
    </g>
  </g>
</svg>
