<svg xmlns="http://www.w3.org/2000/svg" viewBox="1213.6 1567.83 68 75.74">
  <defs>
    <style>
      .cls-1 {
        fill: #26b4c7;
      }

      .cls-2 {
        fill: #65748e;
      }

      .cls-3 {
        fill: #fff;
        stroke: #231f20;
        stroke-miterlimit: 10;
      }

      .cls-4 {
        fill: #03163b;
      }
    </style>
  </defs>
  <g id="Group_11" data-name="Group 11" transform="translate(1213.6 1567.83)">
    <path id="Path_23" data-name="Path 23" class="cls-1" d="M134.029,109.734l-9.723,9.607L84.8,118.494V56h49.229Z" transform="translate(-68.474 -45.219)"/>
    <path id="Path_83" data-name="Path 83" class="cls-2" d="M18.617,0A18.617,18.617,0,1,1,0,18.617,18.617,18.617,0,0,1,18.617,0Z" transform="translate(1.444 16.095)"/>
    <path id="Path_24" data-name="Path 24" class="cls-3" d="M46.419,140.393c.154-.327,2.156-2.7,2.156-2.7l3.851,2.349,1.348.77,4.082-3.677,5.737-5.718,2.464-2.022s1.694.963,1.925,1.155,1.386,1.636,1.386,1.636v1.54L56.854,145.245s-2.31,2.792-2.7,2.792a8.643,8.643,0,0,1-2.792-1.848c-.443-.558-4.967-5.6-4.967-5.6" transform="translate(-37.467 -104.487)"/>
    <g id="Group_10" data-name="Group 10">
      <path id="Path_25" data-name="Path 25" class="cls-4" d="M63.38,0H19.137a4.593,4.593,0,0,0-4.582,4.582V14.863a20.074,20.074,0,0,0,0,38.6V71.138a4.6,4.6,0,0,0,4.6,4.6H55.313a1.572,1.572,0,0,0,1.136-.481l11.07-11.07A1.6,1.6,0,0,0,68,63.052V4.582A4.626,4.626,0,0,0,63.38,0ZM19.137,3.234H63.38a1.368,1.368,0,0,1,1.367,1.348v4.89H17.789V4.582a1.364,1.364,0,0,1,1.348-1.348Zm-15.9,30.92A16.827,16.827,0,1,1,20.061,50.981,16.844,16.844,0,0,1,3.234,34.154ZM17.789,71.138V54.1a22.142,22.142,0,0,0,2.272.135,20.086,20.086,0,0,0,15.133-6.892h9.915a1.617,1.617,0,0,0,0-3.234H37.5a19.889,19.889,0,0,0,2.561-8.2h5.044a1.617,1.617,0,0,0,0-3.234H40.084a19.763,19.763,0,0,0-2.445-8.2h7.47a1.617,1.617,0,0,0,0-3.234h-9.7A19.983,19.983,0,0,0,20.08,14.093a17.566,17.566,0,0,0-2.272.135V12.707H64.766V61.435H58.3a4.593,4.593,0,0,0-4.582,4.582v6.469H19.137a1.339,1.339,0,0,1-1.348-1.348Zm39.121-.924V66.036a1.368,1.368,0,0,1,1.348-1.367h4.178Zm0,0"/>
      <path id="Path_26" data-name="Path 26" class="cls-4" d="M260.517,113.534h5.371a1.617,1.617,0,1,0,0-3.234h-5.371a1.617,1.617,0,1,0,0,3.234Zm0,0" transform="translate(-209.055 -89.064)"/>
      <path id="Path_27" data-name="Path 27" class="cls-4" d="M260.517,172.934h5.371a1.617,1.617,0,1,0,0-3.234h-5.371a1.617,1.617,0,1,0,0,3.234Zm0,0" transform="translate(-209.055 -137.028)"/>
      <path id="Path_28" data-name="Path 28" class="cls-4" d="M260.517,232.334h5.371a1.617,1.617,0,0,0,0-3.234h-5.371a1.617,1.617,0,1,0,0,3.234Zm0,0" transform="translate(-209.055 -184.992)"/>
      <path id="Path_29" data-name="Path 29" class="cls-4" d="M224.95,291.734a1.617,1.617,0,1,0,0-3.234H209.817a1.617,1.617,0,1,0,0,3.234Zm0,0" transform="translate(-168.116 -232.956)"/>
      <path id="Path_30" data-name="Path 30" class="cls-4" d="M60.653,123.392l-1.983-1.964a2.767,2.767,0,0,0-1.983-.828,2.734,2.734,0,0,0-1.983.828L44.346,131.786l-2.869-2.869a2.767,2.767,0,0,0-1.983-.828,2.735,2.735,0,0,0-1.983.828l-1.964,1.964a2.824,2.824,0,0,0,0,3.985l6.815,6.815a2.767,2.767,0,0,0,1.983.828,2.735,2.735,0,0,0,1.983-.828l14.3-14.3a2.806,2.806,0,0,0,.019-3.985ZM44.366,139.082l-6.219-6.219,1.386-1.386,3.7,3.7a1.615,1.615,0,0,0,2.291,0l11.186-11.186,1.386,1.386Zm0,0" transform="translate(-28.04 -97.381)"/>
    </g>
  </g>
</svg>
