<svg xmlns="http://www.w3.org/2000/svg" viewBox="5637.891 639 139.902 111.922">
  <defs>
    <style>
      .cls-1 {
        fill: #ff9d00;
      }

      .cls-2 {
        fill: #ff9090;
      }

      .cls-3 {
        fill: #26c7a8;
      }

      .cls-4 {
        fill: #0b8eff;
      }

      .cls-5 {
        fill: none;
        stroke: #fff;
      }
    </style>
  </defs>
  <g id="Group_130" data-name="Group 130" transform="translate(5052)">
    <ellipse id="Ellipse_136" data-name="Ellipse 136" class="cls-1" cx="4.062" cy="4.062" rx="4.062" ry="4.062" transform="translate(594.014 639)"/>
    <ellipse id="Ellipse_137" data-name="Ellipse 137" class="cls-2" cx="4.062" cy="4.062" rx="4.062" ry="4.062" transform="translate(686.078 733.772)"/>
    <ellipse id="Ellipse_141" data-name="Ellipse 141" class="cls-2" cx="4.062" cy="4.062" rx="4.062" ry="4.062" transform="translate(627.41 649.831)"/>
    <ellipse id="Ellipse_138" data-name="Ellipse 138" class="cls-3" cx="4.062" cy="4.062" rx="4.062" ry="4.062" transform="translate(675.247 654.344)"/>
    <ellipse id="Ellipse_139" data-name="Ellipse 139" class="cls-4" cx="4.062" cy="4.062" rx="4.062" ry="4.062" transform="translate(585.891 692.253)"/>
    <ellipse id="Ellipse_140" data-name="Ellipse 140" class="cls-4" cx="4.062" cy="4.062" rx="4.062" ry="4.062" transform="translate(707.741 713.013)"/>
    <ellipse id="Ellipse_142" data-name="Ellipse 142" class="cls-4" cx="4.062" cy="4.062" rx="4.062" ry="4.062" transform="translate(635.534 742.798)"/>
    <g id="Group_77" data-name="Group 77" transform="translate(645.462 647.123)">
      <line id="Line_200" data-name="Line 200" class="cls-5" y2="6.318" transform="translate(3.159)"/>
      <line id="Line_201" data-name="Line 201" class="cls-5" x1="6.318" transform="translate(0 3.159)"/>
    </g>
    <g id="Group_83" data-name="Group 83" transform="translate(684.274 716.623)">
      <line id="Line_200-2" data-name="Line 200" class="cls-5" y2="6.318" transform="translate(3.159 0)"/>
      <line id="Line_201-2" data-name="Line 201" class="cls-5" x1="6.318" transform="translate(0 3.159)"/>
    </g>
    <g id="Group_81" data-name="Group 81" transform="translate(687.884 677.812)">
      <line id="Line_200-3" data-name="Line 200" class="cls-5" y2="6.318" transform="translate(3.159)"/>
      <line id="Line_201-3" data-name="Line 201" class="cls-5" x1="6.318" transform="translate(0 3.159)"/>
    </g>
    <g id="Group_78" data-name="Group 78" transform="translate(615.676 739.188)">
      <line id="Line_200-4" data-name="Line 200" class="cls-5" y2="6.318" transform="translate(3.159 0)"/>
      <line id="Line_201-4" data-name="Line 201" class="cls-5" x1="6.318" transform="translate(0 3.159)"/>
    </g>
    <g id="Group_84" data-name="Group 84" transform="translate(682.473 735.408)">
      <line id="Line_200-5" data-name="Line 200" class="cls-5" y2="4.641" transform="translate(2.321 0)"/>
      <line id="Line_201-5" data-name="Line 201" class="cls-5" x1="4.641" transform="translate(0 2.321)"/>
    </g>
    <g id="Group_85" data-name="Group 85" transform="translate(719.475 677.812)">
      <line id="Line_200-6" data-name="Line 200" class="cls-5" y2="6.318" transform="translate(3.159)"/>
      <line id="Line_201-6" data-name="Line 201" class="cls-5" x1="6.318" transform="translate(0 3.159)"/>
    </g>
    <g id="Group_79" data-name="Group 79" transform="translate(694.202 700.376)">
      <line id="Line_200-7" data-name="Line 200" class="cls-5" y2="6.318" transform="translate(3.159)"/>
      <line id="Line_201-7" data-name="Line 201" class="cls-5" x1="6.318" transform="translate(0 3.159)"/>
    </g>
    <g id="Group_80" data-name="Group 80" transform="translate(602.138 675.104)">
      <line id="Line_200-8" data-name="Line 200" class="cls-5" y2="6.318" transform="translate(3.159 0)"/>
      <line id="Line_201-8" data-name="Line 201" class="cls-5" x1="6.318" transform="translate(0 3.159)"/>
    </g>
    <g id="Group_82" data-name="Group 82" transform="translate(605.748 715.721)">
      <line id="Line_200-9" data-name="Line 200" class="cls-5" y2="6.318" transform="translate(3.159)"/>
      <line id="Line_201-9" data-name="Line 201" class="cls-5" x1="6.318" transform="translate(0 3.159)"/>
    </g>
  </g>
</svg>
