<svg xmlns="http://www.w3.org/2000/svg" viewBox="11012.339 4503.744 45.29 45.29">
  <defs>
    <style>
      .cls-1 {
        fill: #fff;
      }
    </style>
  </defs>
  <path id="Path_202" data-name="Path 202" class="cls-1" d="M8.407,8.952a18.009,18.009,0,0,1,23.4-.623l-5.36.208a1.245,1.245,0,0,0,.046,2.49h.046l8.231-.3a1.246,1.246,0,0,0,1.2-1.245v-.15l-.3-8.139a1.246,1.246,0,0,0-2.49.092l.2,5.1a20.475,20.475,0,0,0-26.63.726A20.479,20.479,0,0,0,.58,27.131a1.231,1.231,0,0,0,1.21.945,1.329,1.329,0,0,0,.3-.035A1.233,1.233,0,0,0,3,26.543,18,18,0,0,1,8.407,8.952Zm0,0" transform="translate(11032.189 4503.746) rotate(45)"/>
</svg>
