<svg xmlns="http://www.w3.org/2000/svg" viewBox="8622.852 226.947 66.858 66.825">
  <defs>
    <style>
      .cls-1 {
        fill: #fff;
      }
    </style>
  </defs>
  <g id="Group_135" data-name="Group 135" transform="translate(8420)">
    <g id="Group_89" data-name="Group 89" transform="translate(202.852 226.947)">
      <path id="Path_200" data-name="Path 200" class="cls-1" d="M65.818,33.4H64.811A31.375,31.375,0,0,1,11.244,55.581,31.363,31.363,0,1,1,55.581,11.21a31.3,31.3,0,0,1,9.2,22.186h2.047A33.392,33.392,0,0,0,9.8,9.8,33.413,33.413,0,0,0,33.429,66.825,33.461,33.461,0,0,0,66.859,33.4h-1.04Z" transform="translate(0 0)"/>
    </g>
    <g id="Group_124" data-name="Group 124" transform="translate(224.236 241.32)">
      <path id="Path_236" data-name="Path 236" class="cls-1" d="M127.652,418.1a2.152,2.152,0,1,0,2.152,2.152A2.151,2.151,0,0,0,127.652,418.1Zm0,2.819a.659.659,0,1,1,.659-.659A.66.66,0,0,1,127.652,420.919Z" transform="translate(-115.989 -386.414)"/>
      <path id="Path_237" data-name="Path 237" class="cls-1" d="M140.488,41.976h3.82a.788.788,0,0,0,0-1.576h-3.82a.788.788,0,1,0,0,1.576Z" transform="translate(-129.113 -37.338)"/>
      <circle id="Ellipse_156" data-name="Ellipse 156" class="cls-1" cx="0.826" cy="0.826" r="0.826" transform="translate(8.132 3.047)"/>
      <path id="Path_238" data-name="Path 238" class="cls-1" d="M20.841,0H2.486A2.487,2.487,0,0,0,0,2.486V36.316A2.487,2.487,0,0,0,2.486,38.8H20.841a2.487,2.487,0,0,0,2.486-2.486V2.486A2.487,2.487,0,0,0,20.841,0Zm.826,36.316a.828.828,0,0,1-.826.826H2.486a.828.828,0,0,1-.826-.826V2.486a.828.828,0,0,1,.826-.826H20.841a.828.828,0,0,1,.826.826Z"/>
      <path id="Path_239" data-name="Path 239" class="cls-1" d="M101.911,207.615a.827.827,0,0,0,.584-.243l3.979-3.979a.831.831,0,0,0-1.175-1.175l-3.979,3.979a.828.828,0,0,0,0,1.175A.858.858,0,0,0,101.911,207.615Z" transform="translate(-93.415 -186.668)"/>
      <path id="Path_240" data-name="Path 240" class="cls-1" d="M164.108,235.378a.823.823,0,0,0,1.167,0l1.584-1.584a.831.831,0,0,0-1.175-1.175L164.1,234.2A.835.835,0,0,0,164.108,235.378Z" transform="translate(-151.444 -214.764)"/>
      <path id="Path_241" data-name="Path 241" class="cls-1" d="M60.509,80.9H45.443a.744.744,0,0,0-.743.743v22.834a.744.744,0,0,0,.743.743H60.5a.744.744,0,0,0,.743-.743V81.643A.733.733,0,0,0,60.509,80.9Zm-.75,22.834H46.193V82.393H59.766l-.008,21.341Z" transform="translate(-41.312 -74.769)"/>
    </g>
  </g>
</svg>
