<svg id="Group_129" data-name="Group 129" xmlns="http://www.w3.org/2000/svg" viewBox="753.359 1564.355 79.262 79.209">
  <defs>
    <style>
      .cls-1 {
        fill: #65748e;
      }

      .cls-2 {
        fill: #26b4c7;
      }

      .cls-3 {
        fill: #fff;
      }

      .cls-4 {
        fill: #82bbc3;
      }

      .cls-5 {
        fill: #03163b;
      }
    </style>
  </defs>
  <ellipse id="Ellipse_50" data-name="Ellipse 50" class="cls-1" cx="33.608" cy="33.608" rx="33.608" ry="33.608" transform="translate(753.359 1564.355)"/>
  <g id="Group_9" data-name="Group 9" transform="translate(763.2 1574.162)">
    <path id="Path_19" data-name="Path 19" class="cls-2" d="M12.95,26.154l-2.442-2.832-.977-2.344L14.708,15.7l1.66-1.856,2.344.391,2.578,2.344,3.379-1.465,4.1-1.27,1.66-1.465V9.356l.977-1.27L33.753,7.5h7.13l1.66,1.113L43.617,11.5V13.36l7.716,3.477L52.8,15.9l2.735-2.637a32.078,32.078,0,0,0,3.028,2.051,37.375,37.375,0,0,1,3.418,3.321l1.758,2.051-.488,2.735L61.49,25.314l.879,3.282,1.367,3.614.586,2.149h2.442l2.071.684.566.781.781,2.344v6.055l-1.348,2.344L65.69,47.641l-2.051.684L61.783,53.11,60.9,56.138,62.467,57.6l.977,2.637L61.49,63.462l-5.079,4.493H54.067l-2.93-2.832-6.348,2.832-1.563,1.172-.879,2.344-.391,2.149-10.548.488-1.27-1.953V68.932L27.8,67.564,21.74,64.83l-3.028,2.539H15.88L9.532,60.532V58.188l2.246-2.051V55.063L10.606,51,9.532,47.348l-4.395-.684L2.5,43.832l1.074-8.4L4.59,34.26l2.3-.1,2.246-.1L11,28.5Z" transform="translate(-2.012 -6.035)"/>
    <ellipse id="Ellipse_48" data-name="Ellipse 48" class="cls-3" cx="16.779" cy="16.779" rx="16.779" ry="16.779" transform="translate(17.912 17.99)"/>
    <path id="Path_82" data-name="Path 82" class="cls-4" d="M11.017,0A11.017,11.017,0,1,1,0,11.017,11.017,11.017,0,0,1,11.017,0Z" transform="translate(23.674 23.752)"/>
    <g id="Group_8" data-name="Group 8">
      <path id="Path_20" data-name="Path 20" class="cls-5" d="M103.49,85.5a17.99,17.99,0,1,0,17.99,17.99A18.006,18.006,0,0,0,103.49,85.5Zm0,33.4A15.421,15.421,0,1,1,118.9,103.49,15.435,15.435,0,0,1,103.49,118.9Zm0,0" transform="translate(-68.799 -68.799)"/>
      <path id="Path_21" data-name="Path 21" class="cls-5" d="M65.807,26.975h-2.6a29.387,29.387,0,0,0-2.91-7.012l1.836-1.836a3.579,3.579,0,0,0,1.035-2.52,3.625,3.625,0,0,0-1.035-2.539l-5.86-5.86a3.67,3.67,0,0,0-5.059,0L49.38,9.044a28.551,28.551,0,0,0-7.012-2.891V3.575A3.576,3.576,0,0,0,38.793,0H30.511a3.576,3.576,0,0,0-3.575,3.575v2.6a29.329,29.329,0,0,0-7.012,2.891L18.146,7.227a3.67,3.67,0,0,0-5.059,0l-5.86,5.86a3.591,3.591,0,0,0-1.035,2.539,3.545,3.545,0,0,0,1.035,2.52l1.836,1.836a28.551,28.551,0,0,0-2.891,7.012h-2.6A3.547,3.547,0,0,0,0,30.55v8.282a3.576,3.576,0,0,0,3.575,3.575h2.6a29.33,29.33,0,0,0,2.891,7.012L7.227,51.255a3.608,3.608,0,0,0,0,5.059l5.86,5.84a3.67,3.67,0,0,0,5.059,0l1.836-1.836a29.386,29.386,0,0,0,7.012,2.91v2.6A3.576,3.576,0,0,0,30.569,69.4h8.282a3.576,3.576,0,0,0,3.575-3.575v-2.6a29.386,29.386,0,0,0,7.012-2.91l1.836,1.836a3.67,3.67,0,0,0,5.059,0l5.84-5.84a3.644,3.644,0,0,0,1.055-2.539,3.484,3.484,0,0,0-1.055-2.52l-1.836-1.836a29.387,29.387,0,0,0,2.91-7.012h2.6a3.576,3.576,0,0,0,3.575-3.575V30.55a3.635,3.635,0,0,0-3.614-3.575Zm1.016,11.857a1,1,0,0,1-1,1h-4.61l-.234,1a26.584,26.584,0,0,1-3.36,8.106l-.547.859,3.262,3.262a1.014,1.014,0,0,1,0,1.426l-5.84,5.84a1.014,1.014,0,0,1-1.426,0L49.81,57.056l-.859.547a26.787,26.787,0,0,1-8.106,3.36l-1,.234v4.61a1,1,0,0,1-1,1H30.569a1,1,0,0,1-1-1V61.2l-1-.234a26.584,26.584,0,0,1-8.106-3.36l-.859-.547-3.262,3.262a1.014,1.014,0,0,1-1.426,0l-5.84-5.84a1.014,1.014,0,0,1,0-1.426l3.223-3.243-.547-.859A26.787,26.787,0,0,1,8.4,40.844l-.234-1H3.575a1,1,0,0,1-1-1V30.569a1,1,0,0,1,1-1h4.61l.234-1a26.584,26.584,0,0,1,3.36-8.106l.547-.859L9.044,16.33a1.014,1.014,0,0,1,0-1.426l5.84-5.84a1.014,1.014,0,0,1,1.426,0l3.282,3.243.859-.547A26.584,26.584,0,0,1,28.557,8.4l1-.234V3.575a1,1,0,0,1,1-1h8.282a1,1,0,0,1,1,1v4.61l1,.234a26.584,26.584,0,0,1,8.106,3.36l.879.527,3.262-3.262a1.014,1.014,0,0,1,1.426,0l5.84,5.84a1.014,1.014,0,0,1,0,1.426l-3.262,3.262.547.859a26.584,26.584,0,0,1,3.36,8.106l.234,1h4.61a1,1,0,0,1,1,1Zm0,0"/>
      <path id="Path_22" data-name="Path 22" class="cls-5" d="M124.653,111.8a12.853,12.853,0,1,0,12.853,12.853A12.863,12.863,0,0,0,124.653,111.8Zm0,23.127a10.274,10.274,0,1,1,10.274-10.274,10.287,10.287,0,0,1-10.274,10.274Zm0,0" transform="translate(-89.962 -89.962)"/>
    </g>
  </g>
</svg>
