<svg xmlns="http://www.w3.org/2000/svg" xmlns:xlink="http://www.w3.org/1999/xlink" viewBox="5267.71 2438.047 1503.444 1676.912">
  <defs>
    <style>
      .cls-1, .cls-4, .cls-5, .cls-6, .cls-8 {
        fill: none;
      }

      .cls-1 {
        stroke: #26c7a8;
      }

      .cls-1, .cls-4, .cls-6 {
        stroke-width: 6px;
      }

      .cls-2 {
        fill: url(#linear-gradient);
      }

      .cls-3 {
        fill: url(#linear-gradient-17);
      }

      .cls-4 {
        stroke: #ff9090;
      }

      .cls-6 {
        stroke: #ff9d00;
      }

      .cls-7, .cls-9 {
        stroke: none;
      }

      .cls-9 {
        fill: #0093ff;
      }
    </style>
    <linearGradient id="linear-gradient" x1="0.5" x2="0.5" y2="1" gradientUnits="objectBoundingBox">
      <stop offset="0" stop-color="#0b8eff"/>
      <stop offset="1" stop-color="#26c7a8"/>
    </linearGradient>
    <linearGradient id="linear-gradient-17" x1="0.237" y1="0.736" x2="0.647" y2="0.077" gradientUnits="objectBoundingBox">
      <stop offset="0" stop-color="#1b54a8"/>
      <stop offset="1" stop-color="#26b4c7"/>
    </linearGradient>
  </defs>
  <g id="Group_132" data-name="Group 132" transform="translate(5052 2788)">
    <g id="Ellipse_144" data-name="Ellipse 144" class="cls-1" transform="translate(1552 546.62)">
      <ellipse class="cls-7" cx="61.664" cy="61.664" rx="61.664" ry="61.664"/>
      <ellipse class="cls-8" cx="61.664" cy="61.664" rx="58.664" ry="58.664"/>
    </g>
    <g id="Group_91" data-name="Group 91" transform="translate(466.875 289.197) rotate(45)">
      <path id="Path_85" data-name="Path 85" class="cls-2" d="M0,302.621v99.115a3.121,3.121,0,0,0,6.242,0V302.621a3.121,3.121,0,1,0-6.242,0" transform="translate(0 -195.634)"/>
      <path id="Path_86" data-name="Path 86" class="cls-2" d="M55.6,190.421V367.427a3.121,3.121,0,1,0,6.242,0V190.421a3.121,3.121,0,0,0-6.242,0" transform="translate(-36.318 -122.345)"/>
      <path id="Path_87" data-name="Path 87" class="cls-2" d="M111.3,122.421V346.557a3.121,3.121,0,0,0,6.242,0V122.421a3.121,3.121,0,0,0-6.242,0" transform="translate(-72.701 -77.927)"/>
      <path id="Path_88" data-name="Path 88" class="cls-2" d="M166.9,80.121V333.6a3.121,3.121,0,0,0,6.242,0V80.121a3.121,3.121,0,1,0-6.242,0" transform="translate(-109.019 -50.296)"/>
      <path id="Path_89" data-name="Path 89" class="cls-2" d="M222.5,46.821V323.393a3.121,3.121,0,0,0,6.242,0V46.821a3.121,3.121,0,0,0-6.242,0" transform="translate(-145.337 -28.545)"/>
      <path id="Path_90" data-name="Path 90" class="cls-2" d="M278.1,23.721V316.315a3.121,3.121,0,1,0,6.242,0V23.721a3.121,3.121,0,0,0-6.242,0" transform="translate(-181.655 -13.456)"/>
      <path id="Path_91" data-name="Path 91" class="cls-2" d="M333.8,12.121V312.727a3.121,3.121,0,0,0,6.242,0V12.121a3.121,3.121,0,0,0-6.242,0" transform="translate(-218.039 -5.879)"/>
      <path id="Path_92" data-name="Path 92" class="cls-2" d="M389.4,3.121V310a3.121,3.121,0,1,0,6.242,0V3.121a3.121,3.121,0,1,0-6.242,0" transform="translate(-254.357)"/>
      <path id="Path_93" data-name="Path 93" class="cls-2" d="M445,3.121V310a3.121,3.121,0,1,0,6.242,0V3.121a3.121,3.121,0,0,0-6.242,0" transform="translate(-290.674)"/>
      <path id="Path_94" data-name="Path 94" class="cls-2" d="M500.6,12.121V312.727a3.121,3.121,0,1,0,6.242,0V12.121A3.108,3.108,0,0,0,503.721,9a3.153,3.153,0,0,0-3.121,3.121" transform="translate(-326.993 -5.879)"/>
      <path id="Path_95" data-name="Path 95" class="cls-2" d="M556.3,23.721V316.315a3.121,3.121,0,1,0,6.242,0V23.721a3.121,3.121,0,1,0-6.242,0" transform="translate(-363.376 -13.456)"/>
      <path id="Path_96" data-name="Path 96" class="cls-2" d="M611.9,46.821V323.393a3.121,3.121,0,1,0,6.242,0V46.821a3.121,3.121,0,1,0-6.242,0" transform="translate(-399.694 -28.545)"/>
      <path id="Path_97" data-name="Path 97" class="cls-2" d="M667.5,80.121V333.6a3.121,3.121,0,0,0,6.242,0V80.121a3.121,3.121,0,0,0-6.242,0" transform="translate(-436.012 -50.296)"/>
      <path id="Path_98" data-name="Path 98" class="cls-2" d="M723.2,122.421V346.557a3.121,3.121,0,1,0,6.242,0V122.421a3.121,3.121,0,1,0-6.242,0" transform="translate(-472.395 -77.927)"/>
      <path id="Path_99" data-name="Path 99" class="cls-2" d="M778.8,190.421V367.427a3.121,3.121,0,1,0,6.242,0V190.421a3.121,3.121,0,1,0-6.242,0" transform="translate(-508.713 -122.345)"/>
      <path id="Path_100" data-name="Path 100" class="cls-2" d="M834.4,302.621v99.115a3.121,3.121,0,1,0,6.242,0V302.621a3.121,3.121,0,1,0-6.242,0" transform="translate(-545.031 -195.634)"/>
    </g>
    <circle id="Ellipse_143" data-name="Ellipse 143" class="cls-3" cx="401" cy="401" r="401" transform="translate(215.71 -62.542) rotate(-21)"/>
    <g id="Ellipse_145" data-name="Ellipse 145" class="cls-4" transform="translate(1043.563 49.83)">
      <ellipse class="cls-7" cx="88.357" cy="88.357" rx="88.357" ry="88.357"/>
      <ellipse class="cls-8" cx="88.357" cy="88.357" rx="85.357" ry="85.357"/>
    </g>
    <g id="Path_201" data-name="Path 201" class="cls-5" transform="translate(1464.193 458.5)">
      <path class="cls-7" d="M74.705,0a74.844,74.844,0,0,1,53.681,22.751A74.705,74.705,0,1,1,74.705,0Z"/>
      <path class="cls-9" d="M 74.70529174804688 146.41064453125 C 84.38677215576172 146.41064453125 93.77705383300781 144.5151977539062 102.6153106689453 140.7769165039062 C 106.8634872436523 138.9800872802734 110.9610977172852 136.7559509277344 114.7943115234375 134.1662750244141 C 118.5918807983398 131.6006927490234 122.1630325317383 128.6541900634766 125.4085998535156 125.4086456298828 C 128.6541595458984 122.1630859375 131.6006469726562 118.5919342041016 134.1662292480469 114.7943649291992 C 136.7559051513672 110.9611511230469 138.9800262451172 106.8635406494141 140.77685546875 102.6153411865234 C 144.51513671875 93.77708435058594 146.4105987548828 84.38680267333984 146.4105987548828 74.705322265625 C 146.4105987548828 69.89501953125 145.9321899414062 65.08029937744141 144.9886627197266 60.39495086669922 C 144.0729064941406 55.84756088256836 142.7100982666016 51.37514877319336 140.9380950927734 47.10197448730469 C 139.2041168212891 42.92045211791992 137.0656127929688 38.89812850952148 134.5820465087891 35.14669036865234 C 132.1285705566406 31.44075775146484 129.3249816894531 27.9786262512207 126.2485504150391 24.85584449768066 C 119.438835144043 17.93956184387207 111.5899887084961 12.53664875030518 102.9200744628906 8.797191619873047 C 94.00141906738281 4.95045280456543 84.50859832763672 2.999996185302734 74.70529174804688 2.999996185302734 C 65.02381134033203 2.999996185302734 55.63352966308594 4.895452499389648 46.79529190063477 8.633735656738281 C 42.54709625244141 10.43056106567383 38.44948577880859 12.65469169616699 34.61626815795898 15.24436569213867 C 30.8187255859375 17.80995178222656 27.2475528717041 20.7564525604248 24.00200843811035 24.00199699401855 C 20.75644302368164 27.24756050109863 17.80994415283203 30.8187141418457 15.2443790435791 34.61627960205078 C 12.65470504760742 38.44949722290039 10.43057441711426 42.54710388183594 8.633726119995117 46.7952995300293 C 4.895465850830078 55.63356018066406 3.000009059906006 65.02384185791016 3.000009059906006 74.705322265625 C 3.000009059906006 84.38680267333984 4.895465850830078 93.77708435058594 8.633726119995117 102.6153411865234 C 10.43057441711426 106.8635406494141 12.65470504760742 110.9611511230469 15.2443790435791 114.7943649291992 C 17.80994415283203 118.5919342041016 20.75644302368164 122.1630859375 24.00200843811035 125.4086456298828 C 27.2475528717041 128.6541900634766 30.8187255859375 131.6006927490234 34.61626815795898 134.1662750244141 C 38.44948577880859 136.7559509277344 42.54709625244141 138.9800872802734 46.79529190063477 140.7769165039062 C 55.63352966308594 144.5151977539062 65.02381134033203 146.41064453125 74.70529174804688 146.41064453125 M 74.70529174804688 149.41064453125 C 33.44670486450195 149.41064453125 9.139351277553942e-06 115.9639282226562 9.139351277553942e-06 74.705322265625 C 9.139351277553942e-06 33.44671249389648 33.44670486450195 -3.821331574727083e-06 74.70529174804688 -3.821331574727083e-06 C 95.54072570800781 -3.821331574727083e-06 114.3839874267578 8.529648780822754 128.3862762451172 22.75106048583984 C 141.2152099609375 35.773193359375 149.4105987548828 54.28219223022461 149.4105987548828 74.705322265625 C 149.4105987548828 115.9639282226562 115.9638824462891 149.41064453125 74.70529174804688 149.41064453125 Z"/>
    </g>
    <g id="Ellipse_146" data-name="Ellipse 146" class="cls-6" transform="translate(1466.44 1075.245)">
      <ellipse class="cls-7" cx="126.357" cy="125.857" rx="126.357" ry="125.857"/>
      <ellipse class="cls-8" cx="126.357" cy="125.857" rx="123.357" ry="122.857"/>
    </g>
  </g>
</svg>
